PathFileType	4	(X/Y/Z)	C:\Users\dbl\Desktop\20210112\20210112\bx_n_5_902.trc
DataRate	CameraRate	NumFrames	NumMarkers	Units	OrigDataRate	OrigDataStartFrame	OrigNumFrames
50.00	50.00	       5	43	mm	50.00	1	       545
Frame#	Time	Top.Head			R.Acromium			L.Acromium			Sternum			R.ASIS			L.ASIS			V.Sacral			R.Thigh.Upper			R.Thigh.Front			R.Thigh.Rear			R.Knee.Lat			R.Knee.Med			R.Shank.Upper			R.Shank.Front			R.Shank.Rear			R.Ankle.Lat			R.Midfoot.Lat			R.Toe.Lat			R.Toe.Tip			R.Toe.Med			R.Ankle.Med			R.Midfoot.Sup			R.Heel			L.Thigh.Upper			L.Thigh.Front			L.Thigh.Rear			L.Knee.Lat			L.Knee.Med			L.Shank.Upper			L.Shank.Front			L.Shank.Rear			L.Ankle.Lat			L.Midfoot.Lat			L.Toe.Lat			L.Toe.Tip			L.Toe.Med			L.Ankle.Med			L.Midfoot.Sup			L.Heel			origin1 front left			origin2 front right			origin 3 back right			origin 4 back leftt			
		X1	Y1	Z1	X2	Y2	Z2	X3	Y3	Z3	X4	Y4	Z4	X5	Y5	Z5	X6	Y6	Z6	X7	Y7	Z7	X8	Y8	Z8	X9	Y9	Z9	X10	Y10	Z10	X11	Y11	Z11	X12	Y12	Z12	X13	Y13	Z13	X14	Y14	Z14	X15	Y15	Z15	X16	Y16	Z16	X17	Y17	Z17	X18	Y18	Z18	X19	Y19	Z19	X20	Y20	Z20	X21	Y21	Z21	X22	Y22	Z22	X23	Y23	Z23	X24	Y24	Z24	X25	Y25	Z25	X26	Y26	Z26	X27	Y27	Z27	X28	Y28	Z28	X29	Y29	Z29	X30	Y30	Z30	X31	Y31	Z31	X32	Y32	Z32	X33	Y33	Z33	X34	Y34	Z34	X35	Y35	Z35	X36	Y36	Z36	X37	Y37	Z37	X38	Y38	Z38	X39	Y39	Z39	X40	Y40	Z40	X41	Y41	Z41	X42	Y42	Z42	X43	Y43	Z43	

1	0.000	-680.03680	129.34253	1848.43359	-692.62469	-63.78756	1538.07629	-704.36810	298.53061	1528.70068	-589.76062	113.16866	1356.78564	-580.11871	-0.38113	1053.02820	-586.45862	247.43726	1063.92334	-783.78064	100.36467	1049.82458	-644.48157	-68.69016	872.18250	-571.54950	1.59129	803.14490	-667.13995	-57.38016	756.86371	-694.04071	-31.94016	616.84973	-685.19281	78.18637	573.56549	-703.16626	-29.56713	568.75769	-657.15179	20.87893	518.31622	-747.51440	-43.40470	489.36893	-756.08698	-18.25119	207.76276	-647.78192	-65.12731	164.01096	-605.68646	-71.32406	159.22910	-547.24554	-26.44571	164.24471	-598.65948	29.07159	166.02235	-718.87738	72.52651	215.26569	-674.16406	56.04222	156.15053	-792.39374	38.57334	174.08691	-670.47266	290.91837	871.57709	-575.74097	226.24048	791.12299	-681.29761	274.22812	742.38599	-714.67657	254.28568	642.57257	-683.12158	146.97919	575.42798	-719.63751	249.71942	575.80377	-667.41882	208.17543	533.55383	-761.13153	259.44424	502.61401	-767.14813	227.33167	205.56270	-659.87964	297.44882	158.16010	-623.58972	305.91846	158.95811	-554.68774	254.93451	164.60617	-591.22357	217.54524	173.56474	-712.92108	153.38416	216.17763	-674.88043	171.04579	157.78578	-795.87170	178.54128	184.25214	-528.25165	304.22119	146.45491	-517.75922	-72.63500	143.86961	-876.00275	-78.74174	141.50209	-882.56006	296.11014	144.61603	
2	0.020	-679.15533	129.19618	1848.38025	-692.21521	-63.77808	1538.06067	-704.10046	298.57730	1528.86694	-589.39819	113.30975	1356.70154	-579.87140	-0.23908	1052.93884	-586.36584	247.46040	1063.88245	-783.63916	100.48997	1049.93323	-644.31238	-68.54133	872.14526	-571.54541	1.51944	803.09814	-667.18219	-57.37854	756.98212	-694.08057	-31.90114	616.82306	-685.27313	78.18233	573.49298	-703.14380	-29.47295	568.76959	-656.67462	20.58867	518.45435	-747.59619	-43.37067	489.44144	-756.11383	-18.17971	207.76711	-647.78265	-65.12761	164.01100	-605.65869	-71.24483	159.24429	-547.19427	-26.46902	164.17725	-598.66638	29.08813	166.03008	-718.85370	72.39065	215.25363	-674.05853	55.97850	156.20772	-792.41742	38.52858	174.07768	-670.29590	291.06873	871.70392	-575.69501	226.25249	791.10242	-681.17548	274.31924	742.45715	-714.71008	254.33032	642.53046	-683.11926	147.04878	575.54340	-719.63025	249.70164	575.76251	-667.46747	208.26086	533.55084	-761.14160	259.49573	502.60699	-767.15576	227.34131	205.54137	-659.86841	297.46265	158.08211	-623.57092	305.93356	159.01215	-554.80768	254.95926	164.64227	-591.23871	217.45378	173.59874	-712.49884	153.37241	216.17117	-674.91327	171.23759	157.61525	-795.88568	178.57504	184.28079	-528.24414	304.17847	146.40363	-517.75989	-72.73505	143.79514	-875.93408	-78.70149	141.36649	-882.56897	296.12527	144.62317	
3	0.040	-678.24750	129.07019	1848.34753	-691.80780	-63.77566	1538.05322	-703.77032	298.62286	1528.99756	-589.00647	113.43410	1356.62366	-579.67096	-0.11905	1052.85962	-586.27380	247.52411	1063.84717	-783.50513	100.58195	1050.05164	-644.18536	-68.44190	872.11279	-571.49799	1.44325	803.06348	-667.20209	-57.38581	757.05743	-694.11725	-31.86861	616.82727	-685.38361	78.16048	573.40588	-703.16162	-29.38211	568.77264	-656.45587	20.43839	518.52374	-747.68408	-43.34591	489.48343	-756.13269	-18.13795	207.77026	-647.78033	-65.12390	164.00873	-605.63861	-71.20657	159.25571	-547.16528	-26.47164	164.13934	-598.66724	29.08620	166.03691	-718.81549	72.29369	215.23322	-673.98236	55.94287	156.26033	-792.40839	38.52846	174.05424	-670.15558	291.22385	871.82513	-575.65924	226.29436	791.06976	-681.09937	274.38269	742.50281	-714.74231	254.37083	642.49127	-683.09277	147.12425	575.63531	-719.63873	249.73016	575.74280	-667.49695	208.32809	533.57306	-761.14758	259.55432	502.59341	-767.17236	227.36436	205.55348	-659.84943	297.45648	158.03586	-623.55750	305.93784	159.06091	-554.90247	254.97313	164.67033	-591.23962	217.40173	173.60625	-712.22784	153.36728	216.16576	-674.93237	171.36870	157.50064	-795.90967	178.59108	184.28557	-528.23615	304.17267	146.40588	-517.76141	-72.77452	143.74605	-875.88678	-78.68462	141.27129	-882.56628	296.13135	144.62054	
4	0.060	-677.30225	128.98317	1848.33044	-691.40027	-63.75969	1538.04248	-703.33557	298.64929	1529.06763	-588.61505	113.53804	1356.52771	-579.53247	-0.07302	1052.84790	-586.18427	247.64247	1063.82605	-783.38519	100.64968	1050.15710	-644.12433	-68.40171	872.09674	-571.47046	1.42549	803.02960	-667.20654	-57.39572	757.08075	-694.14557	-31.86341	616.88147	-685.52405	78.11673	573.31213	-703.24780	-29.32180	568.77087	-656.57819	20.46896	518.50604	-747.78693	-43.33850	489.49515	-756.14185	-18.13410	207.77565	-647.77264	-65.11389	164.00294	-605.63391	-71.21417	159.25458	-547.15497	-26.45949	164.12918	-598.67371	29.07026	166.06107	-718.76483	72.26536	215.20572	-673.97479	55.95110	156.29044	-792.38324	38.56592	174.04054	-670.07208	291.37711	871.92328	-575.63806	226.35323	791.02686	-681.06940	274.41046	742.51331	-714.77557	254.40474	642.45612	-683.03461	147.20567	575.69122	-719.65240	249.80057	575.73523	-667.50586	208.37138	533.61438	-761.16162	259.62955	502.59720	-767.18555	227.37866	205.59172	-659.82819	297.44379	158.01625	-623.55432	305.93344	159.10236	-554.95917	254.97447	164.67828	-591.22546	217.39548	173.59265	-712.12787	153.36716	216.16647	-674.94189	171.42433	157.45158	-795.93628	178.59070	184.27290	-528.22748	304.20819	146.46094	-517.76672	-72.75113	143.73622	-875.86292	-78.69094	141.22787	-882.55396	296.13040	144.61461	
5	0.080	-676.32489	128.93010	1848.32104	-690.98145	-63.71268	1538.00708	-702.80927	298.64722	1529.07886	-588.27258	113.62818	1356.38794	-579.45654	-0.13834	1052.96875	-586.10156	247.79599	1063.81433	-783.28662	100.71683	1050.22656	-644.12347	-68.38348	872.10376	-571.53650	1.50759	802.98505	-667.21753	-57.40862	757.08691	-694.16504	-31.90146	616.98102	-685.67633	78.07158	573.22833	-703.41083	-29.31589	568.78595	-656.91650	20.60800	518.43420	-747.90985	-43.34122	489.50571	-756.15149	-18.15182	207.78600	-647.76154	-65.10184	163.99641	-605.64825	-71.23885	159.23941	-547.14844	-26.45947	164.12634	-598.70135	29.05542	166.10014	-718.72510	72.29005	215.17719	-674.04065	55.98801	156.28090	-792.38348	38.60458	174.06531	-670.04120	291.49994	871.96655	-575.63287	226.40881	790.98022	-681.06335	274.41705	742.49719	-714.80823	254.44482	642.42804	-682.96552	147.28236	575.71747	-719.65375	249.88527	575.71759	-667.50494	208.39613	533.64691	-761.18634	259.72220	502.62701	-767.19305	227.36137	205.62904	-659.81464	297.44608	158.00371	-623.56281	305.92859	159.13591	-554.97992	254.96469	164.66400	-591.20471	217.41048	173.57790	-712.11823	153.36832	216.18539	-674.96039	171.43854	157.43172	-795.94739	178.58485	184.26274	-528.22095	304.25150	146.52029	-517.77631	-72.70024	143.76405	-875.85406	-78.69854	141.22513	-882.54053	296.13416	144.62076	
